<?xml version="1.0" encoding="UTF-8" standalone="no"?>
<svg
   xmlns:dc="http://purl.org/dc/elements/1.1/"
   xmlns:cc="http://creativecommons.org/ns#"
   xmlns:rdf="http://www.w3.org/1999/02/22-rdf-syntax-ns#"
   xmlns:svg="http://www.w3.org/2000/svg"
   xmlns="http://www.w3.org/2000/svg"
   xmlns:sodipodi="http://sodipodi.sourceforge.net/DTD/sodipodi-0.dtd"
   xmlns:inkscape="http://www.inkscape.org/namespaces/inkscape"
   version="1.1"
   id="Capa_1"
   x="0px"
   y="0px"
   viewBox="0 0 468.493 468.493"
   style="enable-background:new 0 0 468.493 468.493;"
   xml:space="preserve"
   sodipodi:docname="multiplayer2.svg"
   inkscape:version="1.0.1 (3bc2e813f5, 2020-09-07)"><metadata
   id="metadata55"><rdf:RDF><cc:Work
       rdf:about=""><dc:format>image/svg+xml</dc:format><dc:type
         rdf:resource="http://purl.org/dc/dcmitype/StillImage" /><dc:title></dc:title></cc:Work></rdf:RDF></metadata><defs
   id="defs53" /><sodipodi:namedview
   pagecolor="#ffffff"
   bordercolor="#666666"
   borderopacity="1"
   objecttolerance="10"
   gridtolerance="10"
   guidetolerance="10"
   inkscape:pageopacity="0"
   inkscape:pageshadow="2"
   inkscape:window-width="1920"
   inkscape:window-height="1001"
   id="namedview51"
   showgrid="false"
   inkscape:zoom="1.771638"
   inkscape:cx="234.24651"
   inkscape:cy="211.66853"
   inkscape:window-x="1911"
   inkscape:window-y="-9"
   inkscape:window-maximized="1"
   inkscape:current-layer="Capa_1" />
<g
   id="g18"
   style="fill:#ffffff"
   transform="matrix(1,0,0,1.3787518,0,-88.333705)">
	<path
   d="m 138.321,161.831 h -17.437 v -17.437 c 0,-3.615 -2.287,-6.835 -5.701,-8.026 -5.319,-1.855 -10.904,-2.796 -16.6,-2.796 -5.696,0 -11.281,0.941 -16.6,2.796 -3.414,1.191 -5.701,4.411 -5.701,8.026 v 17.437 H 58.847 c -3.615,0 -6.834,2.287 -8.025,5.7 -1.856,5.318 -2.797,10.904 -2.797,16.601 0,5.697 0.941,11.283 2.797,16.601 1.191,3.413 4.411,5.699 8.025,5.699 h 17.437 v 17.437 c 0,3.615 2.287,6.834 5.7,8.025 5.318,1.856 10.904,2.797 16.601,2.797 5.697,0 11.283,-0.941 16.601,-2.797 3.413,-1.191 5.7,-4.41 5.7,-8.025 v -17.437 h 17.437 c 3.615,0 6.835,-2.287 8.026,-5.7 1.855,-5.318 2.796,-10.903 2.796,-16.6 0,-5.696 -0.941,-11.281 -2.796,-16.6 -1.193,-3.414 -4.412,-5.701 -8.028,-5.701 z m -6.592,27.601 h -19.344 c -4.694,0 -8.5,3.806 -8.5,8.5 v 19.344 c -3.481,0.553 -7.12,0.552 -10.601,0 v -19.344 c 0,-4.694 -3.806,-8.5 -8.5,-8.5 H 65.44 c -0.276,-1.741 -0.415,-3.511 -0.415,-5.3 0,-1.789 0.139,-3.56 0.415,-5.301 h 19.344 c 4.694,0 8.5,-3.806 8.5,-8.5 v -19.343 c 3.482,-0.553 7.12,-0.553 10.601,0 v 19.343 c 0,4.694 3.806,8.5 8.5,8.5 h 19.343 c 0.276,1.741 0.415,3.511 0.415,5.301 0,1.789 -0.139,3.56 -0.414,5.3 z"
   id="path2"
   style="fill:#ffffff" />
	<path
   d="m 254.329,166.478 c 0.009,0 0.019,0 0.028,0 7.996,-0.009 14.459,-6.501 14.44,-14.497 -0.02,-7.987 -6.501,-14.449 -14.497,-14.439 -7.987,0.019 -14.459,6.511 -14.439,14.497 0.018,7.986 6.49,14.439 14.468,14.439 z"
   id="path4"
   style="fill:#ffffff" />
	<path
   d="m 413.655,176.853 c -15.05,-16.238 -39.613,-18.106 -57.137,-4.34 -4.789,3.762 -10.376,6.982 -16.534,9.625 -6.765,-39.084 -24.521,-74.946 -51.786,-104.346 -15.049,-16.24 -39.611,-18.11 -57.141,-4.344 -14.5,11.397 -36.2,17.934 -59.535,17.934 -23.341,0 -45.044,-6.537 -59.545,-17.935 C 94.463,59.683 69.9,61.551 54.838,77.791 19.475,115.946 0,165.618 0,217.657 c 0,19.499 2.732,38.81 8.122,57.398 3.94,13.584 14.402,24.161 27.984,28.293 4.044,1.23 8.175,1.833 12.271,1.833 9.678,0 19.154,-3.365 26.782,-9.76 16.623,-13.948 35.986,-24.059 56.702,-29.731 -4.216,16.521 -6.402,33.645 -6.402,51.037 0,19.509 2.731,38.819 8.117,57.393 3.94,13.586 14.402,24.164 27.988,28.295 4.042,1.229 8.17,1.831 12.264,1.831 9.679,0 19.157,-3.367 26.782,-9.764 26.931,-22.595 61.155,-35.038 96.366,-35.038 35.211,0 69.435,12.443 96.365,35.038 10.851,9.104 25.448,12.069 39.046,7.934 13.586,-4.132 24.048,-14.709 27.988,-28.295 5.386,-18.573 8.117,-37.883 8.117,-57.393 10e-4,-52.048 -19.474,-101.722 -54.837,-139.875 z M 62.306,280.097 c -5.739,4.811 -13.167,6.312 -20.378,4.117 C 34.731,282.025 29.41,276.655 27.33,269.485 22.466,252.708 20,235.27 20,217.657 20,170.676 37.582,125.832 69.505,91.388 c 7.915,-8.536 20.861,-9.489 30.114,-2.217 17.957,14.115 44.165,22.21 71.904,22.21 27.732,0 53.937,-8.095 71.89,-22.207 9.265,-7.274 22.208,-6.321 30.118,2.214 25.198,27.172 41.391,60.45 47.16,96.697 -6.77,1.379 -13.891,2.167 -21.197,2.315 0.952,-1.937 1.498,-4.11 1.49,-6.416 -0.02,-7.986 -6.521,-14.449 -14.517,-14.42 -7.986,0.019 -14.439,6.52 -14.419,14.516 0.005,1.344 0.207,2.639 0.554,3.873 -13.69,-2.876 -25.901,-8.161 -35.168,-15.44 -17.522,-13.765 -42.085,-11.899 -57.137,4.34 -18.159,19.591 -32.116,42.226 -41.41,66.654 -28.12,5.474 -54.49,18.053 -76.581,36.59 z m 378.861,88.452 c -2.08,7.173 -7.4,12.542 -14.599,14.731 -7.209,2.193 -14.636,0.692 -20.371,-4.121 -30.527,-25.611 -69.316,-39.716 -109.221,-39.716 -39.905,0 -78.693,14.105 -109.22,39.716 -5.735,4.812 -13.158,6.313 -20.373,4.121 -7.197,-2.189 -12.519,-7.558 -14.598,-14.731 -4.861,-16.763 -7.326,-34.199 -7.326,-51.823 0,-46.989 17.582,-91.835 49.506,-126.277 4.349,-4.692 10.22,-7.09 16.164,-7.09 4.866,0 9.782,1.608 13.949,4.882 17.962,14.11 44.168,22.203 71.897,22.203 27.729,0 53.936,-8.093 71.897,-22.203 9.258,-7.273 22.203,-6.326 30.113,2.208 31.924,34.443 49.506,79.289 49.506,126.277 0.002,17.625 -2.463,35.06 -7.324,51.823 z"
   id="path6"
   style="fill:#ffffff" />
	<path
   d="M 263.776,260.896 H 246.339 V 243.46 c 0,-3.615 -2.287,-6.835 -5.7,-8.026 -5.318,-1.855 -10.903,-2.796 -16.6,-2.796 -5.696,0 -11.281,0.941 -16.6,2.796 -3.414,1.191 -5.701,4.411 -5.701,8.026 v 17.437 h -17.436 c -3.615,0 -6.834,2.287 -8.025,5.7 -1.856,5.318 -2.797,10.904 -2.797,16.601 0,5.697 0.941,11.283 2.797,16.601 1.191,3.413 4.41,5.7 8.025,5.7 h 17.436 v 17.436 c 0,3.615 2.287,6.834 5.7,8.025 5.319,1.856 10.905,2.797 16.601,2.797 5.697,0 11.283,-0.941 16.601,-2.797 3.413,-1.191 5.699,-4.411 5.699,-8.025 v -17.436 h 17.437 c 3.614,0 6.834,-2.286 8.025,-5.699 1.855,-5.317 2.797,-10.903 2.797,-16.602 0,-5.699 -0.941,-11.285 -2.797,-16.602 -1.191,-3.414 -4.411,-5.7 -8.025,-5.7 z m -6.593,27.602 h -19.344 c -4.694,0 -8.5,3.806 -8.5,8.5 v 19.343 c -3.481,0.553 -7.12,0.552 -10.601,0 v -19.343 c 0,-4.694 -3.806,-8.5 -8.5,-8.5 h -19.343 c -0.276,-1.741 -0.415,-3.511 -0.415,-5.301 0,-1.79 0.139,-3.56 0.415,-5.301 h 19.343 c 4.694,0 8.5,-3.806 8.5,-8.5 v -19.343 c 3.482,-0.553 7.12,-0.552 10.601,0 v 19.344 c 0,4.694 3.806,8.5 8.5,8.5 h 19.344 c 0.276,1.741 0.415,3.511 0.415,5.301 0,1.79 -0.139,3.559 -0.415,5.3 z"
   id="path8"
   style="fill:#ffffff" />
	<path
   d="m 411.973,297.569 c 0.01,0 0.029,0 0.039,0 7.996,-0.029 14.449,-6.521 14.43,-14.517 -0.029,-7.986 -6.52,-14.449 -14.516,-14.42 -7.987,0.019 -14.449,6.52 -14.42,14.507 0.018,7.977 6.49,14.43 14.467,14.43 z"
   id="path10"
   style="fill:#ffffff" />
	<path
   d="m 347.715,268.758 c -7.987,0.01 -14.459,6.491 -14.448,14.487 0.01,7.986 6.491,14.459 14.487,14.449 7.987,-0.01 14.459,-6.491 14.449,-14.478 -0.011,-7.995 -6.492,-14.467 -14.488,-14.458 z"
   id="path12"
   style="fill:#ffffff" />
	<path
   d="m 379.931,300.849 c -0.087,0 -0.164,0 -0.251,0 -7.909,0.096 -14.295,6.53 -14.295,14.468 0,7.986 6.481,14.468 14.468,14.468 0.019,0 0.039,0 0.048,0 0.029,0 0.058,0 0.087,0 0.02,0 0.039,0 0.058,0 7.986,-0.029 14.439,-6.54 14.41,-14.526 -0.038,-7.996 -6.539,-14.449 -14.525,-14.41 z"
   id="path14"
   style="fill:#ffffff" />
	<path
   d="m 379.786,265.546 c 0.009,0 0.02,0 0.029,0 7.996,-0.019 14.459,-6.51 14.439,-14.497 -0.019,-7.996 -6.511,-14.459 -14.497,-14.439 -7.995,0.019 -14.458,6.511 -14.439,14.497 0.009,7.977 6.492,14.439 14.468,14.439 z"
   id="path16"
   style="fill:#ffffff" />
</g>
<g
   id="g20">
</g>
<g
   id="g22">
</g>
<g
   id="g24">
</g>
<g
   id="g26">
</g>
<g
   id="g28">
</g>
<g
   id="g30">
</g>
<g
   id="g32">
</g>
<g
   id="g34">
</g>
<g
   id="g36">
</g>
<g
   id="g38">
</g>
<g
   id="g40">
</g>
<g
   id="g42">
</g>
<g
   id="g44">
</g>
<g
   id="g46">
</g>
<g
   id="g48">
</g>
</svg>
