<?xml version="1.0" encoding="UTF-8" standalone="no"?>
<svg
   xmlns:dc="http://purl.org/dc/elements/1.1/"
   xmlns:cc="http://creativecommons.org/ns#"
   xmlns:rdf="http://www.w3.org/1999/02/22-rdf-syntax-ns#"
   xmlns:svg="http://www.w3.org/2000/svg"
   xmlns="http://www.w3.org/2000/svg"
   xmlns:sodipodi="http://sodipodi.sourceforge.net/DTD/sodipodi-0.dtd"
   xmlns:inkscape="http://www.inkscape.org/namespaces/inkscape"
   version="1.1"
   id="Layer_1"
   x="0px"
   y="0px"
   viewBox="0 0 512.368 512.368"
   style="enable-background:new 0 0 512.368 512.368;"
   xml:space="preserve"
   sodipodi:docname="multiplayer3.svg"
   inkscape:version="1.0.1 (3bc2e813f5, 2020-09-07)"><metadata
   id="metadata43"><rdf:RDF><cc:Work
       rdf:about=""><dc:format>image/svg+xml</dc:format><dc:type
         rdf:resource="http://purl.org/dc/dcmitype/StillImage" /><dc:title></dc:title></cc:Work></rdf:RDF></metadata><defs
   id="defs41" /><sodipodi:namedview
   pagecolor="#ffffff"
   bordercolor="#666666"
   borderopacity="1"
   objecttolerance="10"
   gridtolerance="10"
   guidetolerance="10"
   inkscape:pageopacity="0"
   inkscape:pageshadow="2"
   inkscape:window-width="1920"
   inkscape:window-height="1001"
   id="namedview39"
   showgrid="false"
   inkscape:zoom="1.6199295"
   inkscape:cx="262.35247"
   inkscape:cy="231.49156"
   inkscape:window-x="-9"
   inkscape:window-y="-9"
   inkscape:window-maximized="1"
   inkscape:current-layer="Layer_1" />

<g
   id="g8">
</g>
<g
   id="g10">
</g>
<g
   id="g12">
</g>
<g
   id="g14">
</g>
<g
   id="g16">
</g>
<g
   id="g18">
</g>
<g
   id="g20">
</g>
<g
   id="g22">
</g>
<g
   id="g24">
</g>
<g
   id="g26">
</g>
<g
   id="g28">
</g>
<g
   id="g30">
</g>
<g
   id="g32">
</g>
<g
   id="g34">
</g>
<g
   id="g36">
</g>
<g
   id="g6-6-3-2-5"
   style="fill:#ffffff"
   transform="matrix(0.66382245,0.00606416,-0.00602697,0.66791802,1.2008705,-44.584161)"><g
     id="g4-9-1-0-0"
     style="fill:#ffffff"><path
       d="m 447.303,128.681 c -0.427,-1.259 -0.875,-3.264 -1.408,-5.525 -3.52,-14.315 -6.827,-27.84 -19.904,-32.832 l -62.08,-23.616 c -12.032,-4.565 -25.515,-2.923 -36.139,4.48 l -3.84,3.435 c -3.115,3.563 -7.339,8.021 -10.347,10.88 H 199.197 c -2.539,-2.667 -5.931,-6.592 -8.768,-10.112 l -4.437,-4.16 C 175.368,63.807 161.843,62.1 149.875,66.708 L 87.73,90.324 c -13.013,4.949 -16.277,18.325 -19.755,32.512 -0.533,2.155 -0.981,4.117 -0.811,4.117 0,0 0.021,0 0.043,-0.021 -21.162,41.728 -121.813,252.97 -27.584,315.328 13.483,8.917 31.424,7.509 43.691,-3.456 l 73.856,-66.219 c 6.507,-5.845 14.784,-9.067 23.275,-9.067 h 152.853 c 8.491,0 16.747,3.221 23.275,9.067 l 73.856,66.219 c 6.955,6.229 15.616,9.408 24.277,9.408 6.955,0 13.888,-2.069 19.883,-6.293 83.157,-58.347 8.234,-239.425 -27.286,-313.238 z m -105.834,20.821 c 11.776,0 21.333,9.557 21.333,21.333 0,11.776 -9.557,21.333 -21.333,21.333 -11.776,0 -21.333,-9.557 -21.333,-21.333 0,-11.776 9.557,-21.333 21.333,-21.333 z m -128,106.667 h -21.333 v 21.333 c 0,11.776 -9.536,21.333 -21.333,21.333 -11.797,0 -21.333,-9.557 -21.333,-21.333 v -21.333 h -21.333 c -11.797,0 -21.333,-9.557 -21.333,-21.333 0,-11.776 9.536,-21.333 21.333,-21.333 H 149.47 V 192.17 c 0,-11.776 9.536,-21.333 21.333,-21.333 11.797,0 21.333,9.557 21.333,21.333 v 21.333 h 21.333 c 11.797,0 21.333,9.557 21.333,21.333 0,11.776 -9.536,21.333 -21.333,21.333 z m 85.333,-21.333 c -11.776,0 -21.333,-9.557 -21.333,-21.333 0,-11.776 9.557,-21.333 21.333,-21.333 11.776,0 21.333,9.557 21.333,21.333 0,11.776 -9.557,21.333 -21.333,21.333 z m 42.667,42.666 c -11.776,0 -21.333,-9.557 -21.333,-21.333 0,-11.776 9.557,-21.333 21.333,-21.333 11.776,0 21.333,9.557 21.333,21.333 0,11.776 -9.557,21.333 -21.333,21.333 z m 42.666,-42.666 c -11.776,0 -21.333,-9.557 -21.333,-21.333 0,-11.776 9.557,-21.333 21.333,-21.333 11.776,0 21.333,9.557 21.333,21.333 0,11.776 -9.557,21.333 -21.333,21.333 z"
       id="path2-8-0-4-3"
       style="fill:#ffffff" /></g></g><g
   id="g6-6-3-2-5-4"
   style="fill:#ffffff"
   transform="matrix(0.66382245,0.00606416,-0.00602697,0.66791802,174.66521,210.98252)"><g
     id="g4-9-1-0-0-9"
     style="fill:#ffffff"><path
       d="m 447.303,128.681 c -0.427,-1.259 -0.875,-3.264 -1.408,-5.525 -3.52,-14.315 -6.827,-27.84 -19.904,-32.832 l -62.08,-23.616 c -12.032,-4.565 -25.515,-2.923 -36.139,4.48 l -3.84,3.435 c -3.115,3.563 -7.339,8.021 -10.347,10.88 H 199.197 c -2.539,-2.667 -5.931,-6.592 -8.768,-10.112 l -4.437,-4.16 C 175.368,63.807 161.843,62.1 149.875,66.708 L 87.73,90.324 c -13.013,4.949 -16.277,18.325 -19.755,32.512 -0.533,2.155 -0.981,4.117 -0.811,4.117 0,0 0.021,0 0.043,-0.021 -21.162,41.728 -121.813,252.97 -27.584,315.328 13.483,8.917 31.424,7.509 43.691,-3.456 l 73.856,-66.219 c 6.507,-5.845 14.784,-9.067 23.275,-9.067 h 152.853 c 8.491,0 16.747,3.221 23.275,9.067 l 73.856,66.219 c 6.955,6.229 15.616,9.408 24.277,9.408 6.955,0 13.888,-2.069 19.883,-6.293 83.157,-58.347 8.234,-239.425 -27.286,-313.238 z m -105.834,20.821 c 11.776,0 21.333,9.557 21.333,21.333 0,11.776 -9.557,21.333 -21.333,21.333 -11.776,0 -21.333,-9.557 -21.333,-21.333 0,-11.776 9.557,-21.333 21.333,-21.333 z m -128,106.667 h -21.333 v 21.333 c 0,11.776 -9.536,21.333 -21.333,21.333 -11.797,0 -21.333,-9.557 -21.333,-21.333 v -21.333 h -21.333 c -11.797,0 -21.333,-9.557 -21.333,-21.333 0,-11.776 9.536,-21.333 21.333,-21.333 H 149.47 V 192.17 c 0,-11.776 9.536,-21.333 21.333,-21.333 11.797,0 21.333,9.557 21.333,21.333 v 21.333 h 21.333 c 11.797,0 21.333,9.557 21.333,21.333 0,11.776 -9.536,21.333 -21.333,21.333 z m 85.333,-21.333 c -11.776,0 -21.333,-9.557 -21.333,-21.333 0,-11.776 9.557,-21.333 21.333,-21.333 11.776,0 21.333,9.557 21.333,21.333 0,11.776 -9.557,21.333 -21.333,21.333 z m 42.667,42.666 c -11.776,0 -21.333,-9.557 -21.333,-21.333 0,-11.776 9.557,-21.333 21.333,-21.333 11.776,0 21.333,9.557 21.333,21.333 0,11.776 -9.557,21.333 -21.333,21.333 z m 42.666,-42.666 c -11.776,0 -21.333,-9.557 -21.333,-21.333 0,-11.776 9.557,-21.333 21.333,-21.333 11.776,0 21.333,9.557 21.333,21.333 0,11.776 -9.557,21.333 -21.333,21.333 z"
       id="path2-8-0-4-3-6"
       style="fill:#ffffff" /></g></g></svg>
