<?xml version="1.0" encoding="UTF-8" standalone="no"?>
<svg
   xmlns:dc="http://purl.org/dc/elements/1.1/"
   xmlns:cc="http://creativecommons.org/ns#"
   xmlns:rdf="http://www.w3.org/1999/02/22-rdf-syntax-ns#"
   xmlns:svg="http://www.w3.org/2000/svg"
   xmlns="http://www.w3.org/2000/svg"
   xmlns:sodipodi="http://sodipodi.sourceforge.net/DTD/sodipodi-0.dtd"
   xmlns:inkscape="http://www.inkscape.org/namespaces/inkscape"
   class="icon"
   height="512"
   viewBox="0 0 1024 1024"
   version="1.1"
   id="svg4"
   sodipodi:docname="multiplayer2.svg"
   inkscape:version="1.0.1 (3bc2e813f5, 2020-09-07)">
  <metadata
     id="metadata10">
    <rdf:RDF>
      <cc:Work
         rdf:about="">
        <dc:format>image/svg+xml</dc:format>
        <dc:type
           rdf:resource="http://purl.org/dc/dcmitype/StillImage" />
        <dc:title />
      </cc:Work>
    </rdf:RDF>
  </metadata>
  <defs
     id="defs8" />
  <sodipodi:namedview
     pagecolor="#ffffff"
     bordercolor="#666666"
     borderopacity="1"
     objecttolerance="10"
     gridtolerance="10"
     guidetolerance="10"
     inkscape:pageopacity="0"
     inkscape:pageshadow="2"
     inkscape:window-width="1920"
     inkscape:window-height="1001"
     id="namedview6"
     showgrid="false"
     inkscape:zoom="1.3994141"
     inkscape:cx="512"
     inkscape:cy="254.57083"
     inkscape:window-x="1911"
     inkscape:window-y="-9"
     inkscape:window-maximized="1"
     inkscape:current-layer="svg4"
     inkscape:document-rotation="0" />
  <path
     style="fill:#ffffff;stroke-width:1.42917"
     d="m 33.08026,957.20058 c -3.28416,-1.15128 -8.2608,-4.78754 -11.69562,-8.54556 -8.69916,-9.51776 -9.84846,-16.11326 -7.73198,-44.37136 5.8139,-77.62372 30.36594,-139.1572 78.40562,-196.50384 35.8633,-42.81126 92.45134,-81.77486 149.33848,-102.82678 9.24428,-3.421 16.64024,-6.36294 16.43546,-6.53768 -0.20478,-0.1748 -6.48204,-4.88892 -13.94946,-10.47598 C 181.151,541.00402 144.08904,470.63694 141.37552,393.31566 c -1.77332,-50.5301 10.16216,-97.4596 35.56946,-139.85672 46.3687,-77.37536 129.29146,-124.47639 219.14434,-124.47639 28.96776,0 52.12426,3.76138 79.88006,12.97515 147.63438,49.00848 217.5679,217.01866 148.08762,355.76962 -7.60722,15.19146 -19.40322,33.42748 -30.03272,46.429 -11.67798,14.28398 -35.21592,36.45106 -48.84904,46.00404 l -11.67504,8.1809 4.18222,1.62286 c 2.30022,0.89258 10.61346,4.10652 18.4739,7.1421 7.86042,3.03558 23.33316,10.09308 34.38384,15.68334 115.65632,58.50756 185.9327,168.43862 188.19032,294.38002 0.30082,16.78082 0.0278,19.15376 -2.81948,24.51492 -3.8655,7.27814 -11.58694,13.83962 -18.84528,16.01428 -4.01896,1.2041 -98.77928,1.61488 -361.8568,1.56858 -301.9784,-0.0532 -357.28508,-0.3688 -362.12866,-2.06678 z"
     id="path835" />
  <path
     style="fill:#ffffff;stroke-width:1.42917"
     d="m 958.52276,956.70174 c -7.32718,-3.42466 -14.17526,-11.63612 -16.11088,-19.3184 -0.82068,-3.25712 -1.86084,-13.67538 -2.31148,-23.15168 -4.04638,-85.08912 -45.40936,-162.3257 -114.97534,-214.69202 -21.00582,-15.81226 -42.08344,-27.39152 -69.44328,-38.14948 -21.38984,-8.41052 -30.98758,-13.46722 -39.66932,-20.90024 -19.12624,-16.37528 -20.11604,-38.09036 -2.72246,-59.7275 9.08154,-11.29716 17.67888,-18.46322 39.46856,-32.8978 39.78042,-26.35252 66.80048,-59.57582 80.67266,-99.1934 24.59362,-70.2369 7.48422,-147.28684 -44.34784,-199.71476 -34.30706,-34.70144 -76.16482,-53.65212 -125.80268,-56.95588 -21.8821,-1.45642 -27.98224,-3.60239 -35.22814,-12.39292 -12.60578,-15.293 -7.97036,-37.77282 9.62868,-46.69489 6.6854,-3.38926 9.43838,-3.92638 20.0014,-3.90231 25.2964,0.0576 59.2158,6.59669 84.13124,16.21904 83.01468,32.0603 142.51364,102.1149 160.34904,188.79638 14.67756,71.33406 -3.49734,147.31264 -49.22648,205.78704 -12.48068,15.95922 -38.87878,41.02216 -55.67986,52.86372 -13.25374,9.34136 -13.88982,10.01508 -10.68376,11.31584 22.85104,9.27106 56.44836,28.90188 80.52752,47.052 16.87612,12.7207 52.72146,49.24228 66.1531,67.40116 43.49282,58.79992 68.43826,130.4824 69.40436,199.43852 0.2633,18.79568 0.1668,19.46988 -3.7389,26.11434 -5.8338,9.9246 -13.4077,14.44054 -25.1308,14.98424 -7.00364,0.32482 -10.95252,-0.26524 -15.26534,-2.281 z"
     id="path837" />
</svg>
